<svg width="219" height="32" viewBox="0 0 219 32" fill="none" xmlns="http://www.w3.org/2000/svg">
<path d="M62.4576 11.3656V9.10004H67.4112V28.3H62.4576V26.0344C60.9728 27.9032 58.8864 28.8376 56.1984 28.8376C53.6384 28.8376 51.4368 27.8648 49.5936 25.9192C47.7759 23.948 46.8672 21.5416 46.8672 18.7C46.8672 15.884 47.7759 13.4905 49.5936 11.5192C51.4368 9.548 53.6384 8.56244 56.1984 8.56244C58.8864 8.56244 60.9728 9.49688 62.4576 11.3656ZM53.3184 22.6168C54.3168 23.6152 55.584 24.1144 57.12 24.1144C58.656 24.1144 59.9232 23.6152 60.9216 22.6168C61.9456 21.5929 62.4576 20.2873 62.4576 18.7C62.4576 17.1128 61.9456 15.82 60.9216 14.8216C59.9232 13.7977 58.656 13.2856 57.12 13.2856C55.584 13.2856 54.3168 13.7977 53.3184 14.8216C52.32 15.82 51.8208 17.1128 51.8208 18.7C51.8208 20.2873 52.32 21.5929 53.3184 22.6168ZM76.8568 9.10004V12.4024C77.2919 11.1992 78.0343 10.2904 79.084 9.67604C80.1335 9.03608 81.3367 8.71604 82.6936 8.71604V14.2456C81.1831 14.0408 79.8263 14.348 78.6232 15.1672C77.4455 15.9608 76.8568 17.2792 76.8568 19.1224V28.3H71.9032V9.10004H76.8568ZM103.541 20.7352H89.0638C89.7038 23.1416 91.5085 24.3448 94.4782 24.3448C96.3725 24.3448 97.8062 23.7049 98.779 22.4248L102.773 24.7288C100.878 27.4681 98.0878 28.8376 94.4014 28.8376C91.2269 28.8376 88.6798 27.8776 86.7598 25.9576C84.8398 24.0376 83.8797 21.6184 83.8797 18.7C83.8797 15.8329 84.8269 13.4264 86.7214 11.4808C88.5901 9.53528 91.0222 8.56244 94.0174 8.56244C96.859 8.56244 99.1757 9.53528 100.968 11.4808C102.811 13.4264 103.733 15.8329 103.733 18.7C103.733 19.2376 103.669 19.916 103.541 20.7352ZM88.987 16.8952H98.779C98.4974 15.6409 97.9214 14.6809 97.051 14.0152C96.2062 13.3496 95.195 13.0168 94.0174 13.0168C92.6861 13.0168 91.5854 13.3624 90.715 14.0536C89.8445 14.7193 89.2685 15.6664 88.987 16.8952ZM117.866 8.56244C119.99 8.56244 121.718 9.26648 123.05 10.6744C124.433 12.1081 125.124 14.0536 125.124 16.5112V28.3H120.17V17.1256C120.17 15.8713 119.825 14.8984 119.134 14.2072C118.468 13.516 117.546 13.1704 116.369 13.1704C115.063 13.1704 114.026 13.58 113.258 14.3992C112.515 15.1928 112.144 16.3705 112.144 17.932V28.3H107.191V9.10004H112.144V11.2504C113.322 9.45848 115.229 8.56244 117.866 8.56244ZM143.945 11.3656V9.10004H148.898V28.3H143.945V26.0344C142.46 27.9032 140.374 28.8376 137.686 28.8376C135.126 28.8376 132.924 27.8648 131.081 25.9192C129.264 23.948 128.354 21.5416 128.354 18.7C128.354 15.884 129.264 13.4905 131.081 11.5192C132.924 9.548 135.126 8.56244 137.686 8.56244C140.374 8.56244 142.46 9.49688 143.945 11.3656ZM134.806 22.6168C135.804 23.6152 137.071 24.1144 138.607 24.1144C140.143 24.1144 141.41 23.6152 142.409 22.6168C143.434 21.5929 143.945 20.2873 143.945 18.7C143.945 17.1128 143.434 15.82 142.409 14.8216C141.41 13.7977 140.143 13.2856 138.607 13.2856C137.071 13.2856 135.804 13.7977 134.806 14.8216C133.807 15.82 133.308 17.1128 133.308 18.7C133.308 20.2873 133.807 21.5929 134.806 22.6168Z" fill="#1045FF"/>
<path d="M164.374 9.10002V13.8616H160.035V21.8488C160.035 22.5145 160.2 23.0008 160.534 23.308C160.866 23.6152 161.352 23.7944 161.993 23.8456C162.633 23.8712 163.426 23.8585 164.374 23.8072V28.3C161.02 28.684 158.626 28.3768 157.193 27.3784C155.784 26.3545 155.081 24.5113 155.081 21.8488V13.8616H151.74V9.10002H155.081V5.22163L160.035 3.72403V9.10002H164.374ZM170.323 6.79603C169.504 6.79603 168.787 6.50167 168.173 5.91283C167.584 5.29843 167.29 4.58162 167.29 3.76243C167.29 2.94322 167.584 2.22643 168.173 1.61203C168.787 0.99763 169.504 0.69043 170.323 0.69043C171.168 0.69043 171.885 0.99763 172.474 1.61203C173.088 2.22643 173.395 2.94322 173.395 3.76243C173.395 4.58162 173.088 5.29843 172.474 5.91283C171.885 6.50167 171.168 6.79603 170.323 6.79603ZM172.819 28.3H167.866V9.10002H172.819V28.3ZM193.711 25.9192C191.766 27.8648 189.36 28.8376 186.492 28.8376C183.625 28.8376 181.219 27.8648 179.273 25.9192C177.328 23.9737 176.355 21.5672 176.355 18.7C176.355 15.8584 177.328 13.4648 179.273 11.5192C181.245 9.54798 183.651 8.56242 186.492 8.56242C189.334 8.56242 191.741 9.54798 193.711 11.5192C195.683 13.4905 196.668 15.884 196.668 18.7C196.668 21.5416 195.683 23.948 193.711 25.9192ZM182.767 22.5016C183.766 23.5 185.008 23.9992 186.492 23.9992C187.978 23.9992 189.219 23.5 190.217 22.5016C191.215 21.5032 191.715 20.236 191.715 18.7C191.715 17.164 191.215 15.8968 190.217 14.8984C189.219 13.9 187.978 13.4008 186.492 13.4008C185.008 13.4008 183.766 13.9 182.767 14.8984C181.795 15.9224 181.308 17.1896 181.308 18.7C181.308 20.2105 181.795 21.4777 182.767 22.5016ZM210.828 8.56242C212.953 8.56242 214.681 9.26646 216.012 10.6744C217.395 12.1081 218.086 14.0536 218.086 16.5112V28.3H213.132V17.1256C213.132 15.8713 212.787 14.8984 212.095 14.2072C211.431 13.516 210.509 13.1704 209.331 13.1704C208.025 13.1704 206.988 13.58 206.22 14.3992C205.479 15.1928 205.107 16.3705 205.107 17.932V28.3H200.153V9.10002H205.107V11.2504C206.285 9.45846 208.192 8.56242 210.828 8.56242Z" fill="#070928"/>
<path fill-rule="evenodd" clip-rule="evenodd" d="M9.04994 26.6812C19.4991 32.7136 28.9128 32.5911 34.8499 29.1636C40.7869 25.7362 40.9991 20.3017 30.5499 14.2693C20.1006 8.23698 10.687 8.3595 4.7499 11.7869C-1.18716 15.2144 -1.39934 20.6489 9.04994 26.6812ZM14.3334 23.6318C19.7073 26.7341 24.5487 26.6711 27.6019 24.9084C30.6553 23.1458 30.7644 20.3509 25.3906 17.2485C20.0166 14.1461 15.1753 14.2091 12.1219 15.9718C9.06866 17.7345 8.95946 20.5294 14.3334 23.6318Z" fill="#33B0FF"/>
<path fill-rule="evenodd" clip-rule="evenodd" d="M9.04994 23.6408C19.4991 29.673 28.9128 29.5507 34.8499 26.1231C40.7869 22.6957 40.9991 17.2611 30.5499 11.2288C20.1006 5.19647 10.687 5.31896 4.7499 8.74637C-1.18716 12.1739 -1.39934 17.6084 9.04994 23.6408ZM14.3334 20.591C19.7073 23.6933 24.5487 23.6303 27.6019 21.8677C30.6553 20.1049 30.7644 17.3101 25.3906 14.2077C20.0166 11.1053 15.1753 11.1683 12.1219 12.931C9.06866 14.6937 8.95946 17.4886 14.3334 20.591Z" fill="#217DFF"/>
<path fill-rule="evenodd" clip-rule="evenodd" d="M9.04994 20.6004C19.4991 26.6326 28.9128 26.5102 34.8499 23.0828C40.7869 19.6552 40.9991 14.2208 30.5499 8.1884C20.1006 2.15606 10.687 2.27856 4.7499 5.70596C-1.18716 9.13352 -1.39934 14.5681 9.04994 20.6004ZM14.3334 17.5503C19.7073 20.6527 24.5487 20.5897 27.6019 18.827C30.6553 17.0642 30.7644 14.2694 25.3906 11.167C20.0166 8.06468 15.1753 8.12768 12.1219 9.89036C9.06866 11.653 8.95946 14.448 14.3334 17.5503Z" fill="#1045FF"/>
</svg>
